<svg xmlns="http://www.w3.org/2000/svg" xmlns:xlink="http://www.w3.org/1999/xlink"><symbol id="menu-close">
    <rect width="20" height="2" rx="1" transform="rotate(45 .536 1.778)"/>
    <rect width="20" height="2" rx="1" transform="rotate(-45 17.278 6.571)"/>
</symbol><symbol id="menu-open">
    <path d="M0 .673h27v3.682H0zm0 9.844h27v3.682H0z"/>
</symbol><symbol id="sentence-bg">
    <path d="M581.642 13.998l.011.011.011.01 81.359 72.264.015.013.015.012c18.911 14.277 23.637 47.612-.012 66.657l-.037.03-.031.037-325.421 385.389a.043.043 0 01-.006.007c-13.806 15.171-28.527 19.898-41.307 19.679-12.799-.219-23.688-5.399-29.789-10.103l-.01-.007L17.599 336.04l-.012-.009-.011-.009c-9.442-7.128-15.369-19.034-16.554-31.564-1.185-12.525 2.372-25.618 11.821-35.13l.016-.016.015-.018 71.786-86.715.009-.01.007-.01c7.064-9.481 18.867-14.257 31.329-14.855 12.456-.597 25.491 2.987 34.957 10.128l133.989 115.61.385.331.326-.389 229.717-274.6.009-.01.008-.012c7.082-9.505 18.908-15.47 31.353-16.662 12.439-1.193 25.444 2.387 34.893 11.898z" stroke-opacity=".11"/>
    <path d="M720.608 13.998l.011.011.012.01 81.358 72.264.015.013.016.012c18.911 14.277 23.636 47.612-.012 66.657l-.038.03-.031.037-325.421 385.389a.043.043 0 01-.006.007c-13.805 15.171-28.527 19.898-41.307 19.679-12.799-.219-23.688-5.399-29.789-10.103l-.009-.007L156.565 336.04l-.011-.009-.012-.009c-9.441-7.128-15.368-19.034-16.554-31.564-1.185-12.525 2.372-25.618 11.822-35.13l.016-.016.014-.018 71.787-86.715.008-.01.008-.01c7.064-9.481 18.866-14.257 31.329-14.855 12.455-.597 25.491 2.987 34.957 10.128l133.989 115.61.384.331.326-.389 229.717-274.6.009-.01.009-.012c7.081-9.505 18.908-15.47 31.352-16.662 12.44-1.193 25.444 2.387 34.893 11.898z" stroke-opacity=".11"/>
</symbol></svg>