<svg width="49" height="61" fill="none" xmlns="http://www.w3.org/2000/svg"><path d="M48.698 27.063L29.85 3.29A6.898 6.898 0 0024.424.668c-2.02 0-4.04.874-5.425 2.622L.15 27.062l24.273 24.9 24.274-24.9z" fill="url(#paint0_linear)"/><path d="M5.694 7.411h36.595v45.5H5.694V7.41z" fill="#fff"/><path d="M24.424 47.678L.151 27.063v26.696a6.554 6.554 0 006.554 6.554h35.439a6.554 6.554 0 006.554-6.554V27.062L24.424 47.678z" fill="url(#paint1_linear)"/><path d="M31.74 27.572c-.12.3-.424.93-1.089 1.328a2.137 2.137 0 01-1.083.283c-.257 0-.457-.162-.552-.258-.23-.23-.366-.57-.364-.91l.013-2.692c.002-.072.004-.143.004-.216l-.002-.134.03-6.04-2.166-.01-.007 1.432a4.19 4.19 0 00-2.463-.779c-2.408 0-4.899 2.08-4.899 5.56 0 3.172 2.154 5.752 4.802 5.752 1.118 0 2.133-.457 2.932-1.23.155.292.351.56.584.795.575.578 1.317.896 2.088.896 2.212 0 3.611-1.538 4.184-2.977.88-2.214 1.038-4.08.512-6.052l-.01-.034a10.127 10.127 0 00-5.013-6.079 10.13 10.13 0 00-7.851-.693c-2.49.792-4.56 2.5-5.83 4.809a10.14 10.14 0 00-.942 7.498c1.147 4.359 5.088 7.49 9.586 7.614l1.082.03.06-2.165-1.082-.03c-3.543-.098-6.648-2.565-7.551-6a7.986 7.986 0 01.744-5.903 7.997 7.997 0 014.59-3.79 7.982 7.982 0 016.185.546 8.078 8.078 0 012.458 1.993 7.998 7.998 0 011.485 2.775 6.048 6.048 0 01-.436 4.68zm-7.776 1.15c-1.267 0-2.636-1.37-2.636-3.587 0-2.123 1.39-3.393 2.733-3.393 1.416 0 2.41 1.344 2.44 3.277l-.002.293c-.074 1.898-1.182 3.41-2.535 3.41z" fill="url(#paint2_linear)"/><path d="M31.74 27.572c-.12.302-.424.93-1.09 1.329a2.138 2.138 0 01-1.082.282c-.257 0-.457-.161-.552-.258-.23-.23-.366-.57-.364-.91l.045-9.082-2.166-.01-.007 1.433a4.164 4.164 0 00-2.1-.765v2.181c1.22.21 2.05 1.482 2.076 3.246v.293c-.066 1.678-.94 3.055-2.076 3.351v2.2c.936-.106 1.785-.538 2.472-1.203.154.291.35.56.584.794.575.578 1.317.896 2.088.896 2.212 0 3.612-1.537 4.184-2.977.88-2.213 1.039-4.08.512-6.052a10.13 10.13 0 00-5.023-6.113 10.142 10.142 0 00-4.817-1.18v2.166a8.006 8.006 0 013.808.93 8.073 8.073 0 012.487 2.028 7.998 7.998 0 011.456 2.739 6.803 6.803 0 01-.435 4.682zm-7.316 7.869l.862.023.06-2.164-.922-.026v2.167z" fill="url(#paint3_linear)"/><defs><linearGradient id="paint0_linear" x1="24.424" y1=".668" x2="24.424" y2="51.962" gradientUnits="userSpaceOnUse"><stop stop-color="#00B8F0"/><stop offset="0" stop-color="#00B8F0"/><stop offset=".74" stop-color="#B2EEFC"/></linearGradient><linearGradient id="paint1_linear" x1="24.424" y1="27.063" x2="24.424" y2="60.313" gradientUnits="userSpaceOnUse"><stop stop-color="#1792C7"/><stop offset="1" stop-color="#00B8F0"/></linearGradient><linearGradient id="paint2_linear" x1="24.425" y1="15.027" x2="24.425" y2="35.465" gradientUnits="userSpaceOnUse"><stop stop-color="#F86CA2"/><stop offset="1" stop-color="#FA9EC2"/></linearGradient><linearGradient id="paint3_linear" x1="24.425" y1="15.027" x2="24.425" y2="35.465" gradientUnits="userSpaceOnUse"><stop stop-color="#F86CA2"/><stop offset="1" stop-color="#FA9EC2"/></linearGradient></defs></svg>