<svg width="55" height="59" fill="none" xmlns="http://www.w3.org/2000/svg"><path d="M26.938 43.1c.068-.002.137-.002.207-.002 4.405 0 7.977 3.558 7.977 7.948a7.892 7.892 0 01-1.363 4.444 7.974 7.974 0 01-6.615 3.504c-4.405 0-7.977-3.558-7.977-7.948 0-4.32 3.46-7.836 7.77-7.946z" fill="url(#paint0_linear)"/><path d="M27.148.624a4.729 4.729 0 014.635 3.787 4.715 4.715 0 01-4.098 5.612 4.73 4.73 0 01-5.179-3.755 4.715 4.715 0 013.706-5.55 4.68 4.68 0 01.936-.094z" fill="url(#paint1_linear)"/><path d="M49.74 40.324l1.237 1.027a6.443 6.443 0 012.328 4.954v.065a5.604 5.604 0 01-.005.239c-.126 3.412-2.942 6.14-6.398 6.14H7.387c-3.536 0-6.402-2.857-6.402-6.38 0-1.95.886-3.795 2.41-5.02l1.268-1.02a12.414 12.414 0 004.644-9.676v-6.704c0-8.876 6.48-16.243 14.983-17.662a18.108 18.108 0 012.99-.248c9.617 0 17.47 7.525 17.95 16.987a18.388 18.388 0 01.024.923v6.828a12.184 12.184 0 00.02.688 12.417 12.417 0 004.466 8.859z" fill="url(#paint2_linear)"/><path d="M54.673 14.027c0-5.967-4.837-10.805-10.805-10.805-5.967 0-10.805 4.838-10.805 10.806 0 5.967 4.838 10.805 10.805 10.805 5.968 0 10.805-4.838 10.805-10.805z" fill="url(#paint3_linear)"/><path d="M44.074 18.939c-.43 0-.777-.329-.777-.735v-7.083l-.29.25a.808.808 0 01-1.097-.048.707.707 0 01.05-1.037l1.59-1.371a.812.812 0 01.838-.13.736.736 0 01.462.673v8.746c0 .406-.347.735-.776.735z" fill="#fff"/><defs><linearGradient id="paint0_linear" x1="27.145" y1="43.098" x2="27.145" y2="58.995" gradientUnits="userSpaceOnUse"><stop stop-color="#1792C7"/><stop offset="1" stop-color="#00B8F0"/></linearGradient><linearGradient id="paint1_linear" x1="27.145" y1=".624" x2="27.145" y2="10.055" gradientUnits="userSpaceOnUse"><stop stop-color="#1792C7"/><stop offset="1" stop-color="#00B8F0"/></linearGradient><linearGradient id="paint2_linear" x1="27.145" y1="6.039" x2="27.145" y2="52.748" gradientUnits="userSpaceOnUse"><stop stop-color="#00B8F0"/><stop offset="0" stop-color="#00B8F0"/><stop offset=".74" stop-color="#B2EEFC"/></linearGradient><linearGradient id="paint3_linear" x1="43.868" y1="3.222" x2="43.868" y2="24.833" gradientUnits="userSpaceOnUse"><stop stop-color="#F86CA2"/><stop offset="1" stop-color="#FA9EC2"/></linearGradient></defs></svg>