<svg width="627" height="560" fill="none" xmlns="http://www.w3.org/2000/svg"><path d="M581.971 13.998l.012.011.011.01 81.358 72.264.015.013.016.012c18.911 14.277 23.637 47.612-.012 66.657l-.038.03-.031.037-325.42 385.389-.006.007c-13.806 15.171-28.527 19.898-41.308 19.679-12.798-.219-23.687-5.399-29.788-10.103l-.01-.007L17.929 336.04l-.012-.009-.012-.009c-9.441-7.128-15.368-19.034-16.553-31.564-1.185-12.525 2.372-25.618 11.821-35.13l.016-.016.015-.018 71.786-86.715.009-.01.007-.011c7.064-9.48 18.867-14.256 31.329-14.854 12.455-.597 25.491 2.987 34.957 10.127l133.989 115.611.385.331.325-.389 229.718-274.6.009-.01.008-.012c7.082-9.505 18.908-15.47 31.353-16.662 12.439-1.193 25.444 2.387 34.892 11.898z" stroke="#3898FE" stroke-opacity=".11"/><path d="M720.938 13.998l.011.011.012.01 81.358 72.264.015.013.016.012c18.911 14.277 23.636 47.612-.013 66.657l-.037.03-.031.037-325.421 385.389-.006.007c-13.806 15.171-28.527 19.898-41.307 19.679-12.799-.219-23.688-5.399-29.789-10.103l-.009-.007L156.895 336.04l-.011-.009-.012-.009c-9.442-7.128-15.368-19.034-16.554-31.564-1.185-12.525 2.372-25.618 11.822-35.13l.016-.016.014-.018 71.787-86.715.008-.01.008-.011c7.063-9.48 18.866-14.256 31.328-14.854 12.456-.597 25.492 2.987 34.957 10.127l133.99 115.611.384.331.326-.389 229.717-274.6.009-.01.009-.012C661.774 9.257 673.6 3.292 686.045 2.1c12.44-1.193 25.444 2.387 34.893 11.898z" stroke="#3898FE" stroke-opacity=".11"/></svg>