<svg width="55" height="59" viewBox="0 0 55 59" fill="none" xmlns="http://www.w3.org/2000/svg">
<path d="M26.9376 43.1003C27.0063 43.0985 27.0753 43.0977 27.1445 43.0977C31.5503 43.0977 35.1216 46.6563 35.1216 51.0462C35.1216 52.6925 34.6194 54.2218 33.7593 55.4904C32.9239 56.7226 31.7508 57.7088 30.3724 58.3172C29.3855 58.7528 28.2934 58.9948 27.1445 58.9948C22.7387 58.9948 19.1674 55.4362 19.1674 51.0463C19.1674 46.7252 22.6274 43.2096 26.9376 43.1003Z" fill="url(#paint0_linear)"/>
<path d="M27.1478 0.624024C29.3558 0.623175 31.3315 2.17061 31.7833 4.41079C32.2977 6.96333 30.6386 9.44846 28.0769 9.96136C27.9461 9.98755 27.8154 10.0081 27.6852 10.0231C25.2652 10.3031 22.9947 8.69062 22.506 6.26789C21.9911 3.71534 23.6507 1.23022 26.2124 0.717322C26.5264 0.654459 26.8394 0.624137 27.1478 0.624024Z" fill="url(#paint1_linear)"/>
<path d="M49.7405 40.3239L50.9767 41.3508C52.2674 42.423 53.0816 43.9467 53.265 45.5929C53.2912 45.8281 53.3045 46.0657 53.3045 46.3049C53.3045 46.3048 53.3045 46.3051 53.3045 46.3049L53.3046 46.3697C53.3046 46.397 53.3044 46.4244 53.304 46.4517C53.3033 46.5042 53.302 46.5566 53.3001 46.6088C53.1739 50.0208 50.358 52.7484 46.9024 52.7484H7.38678C3.85081 52.7484 0.984619 49.8925 0.984619 46.3697C0.984619 44.4192 1.87056 42.5735 3.39407 41.3491L4.66349 40.3285C7.59983 37.9689 9.30728 34.4118 9.30728 30.653V23.9491C9.30728 15.0732 15.7868 7.70562 24.2898 6.28657C25.2624 6.12379 26.2615 6.03882 27.2807 6.03882C36.8967 6.03882 44.7494 13.5641 45.2308 23.0265C45.2385 23.1792 45.2444 23.3323 45.2483 23.4859C45.2522 23.6398 45.2542 23.7942 45.2542 23.9491V30.7769C45.2542 30.8054 45.2543 30.8339 45.2545 30.8624C45.2559 31.0639 45.2622 31.2649 45.2733 31.4651C45.4643 34.897 47.0754 38.1094 49.7405 40.3239Z" fill="url(#paint2_linear)"/>
<path d="M54.6732 14.0275C54.6732 8.06008 49.8358 3.22241 43.8683 3.22241C37.9008 3.22241 33.063 8.06008 33.063 14.0275C33.063 19.9949 37.9008 24.8326 43.8683 24.8326C49.8358 24.8326 54.6732 19.9949 54.6732 14.0275Z" fill="url(#paint3_linear)"/>
<path d="M44.0738 18.9389C43.6447 18.9389 43.2969 18.6102 43.2969 18.2045V11.1208L43.0072 11.371C42.6902 11.6443 42.1988 11.623 41.9099 11.3231C41.6209 11.0235 41.6434 10.5589 41.9605 10.2856L43.5503 8.91489C43.7778 8.71897 44.1057 8.66821 44.3875 8.78569C44.669 8.90318 44.8504 9.16653 44.8504 9.45758V18.2045C44.8504 18.6102 44.5026 18.9389 44.0738 18.9389Z" fill="white"/>
<defs>
<linearGradient id="paint0_linear" x1="27.1445" y1="43.0977" x2="27.1445" y2="58.9948" gradientUnits="userSpaceOnUse">
<stop stop-color="#1792C7"/>
<stop offset="1" stop-color="#00B8F0"/>
</linearGradient>
<linearGradient id="paint1_linear" x1="27.1446" y1="0.624023" x2="27.1446" y2="10.0547" gradientUnits="userSpaceOnUse">
<stop stop-color="#1792C7"/>
<stop offset="1" stop-color="#00B8F0"/>
</linearGradient>
<linearGradient id="paint2_linear" x1="27.1446" y1="6.03882" x2="27.1446" y2="52.7484" gradientUnits="userSpaceOnUse">
<stop stop-color="#00B8F0"/>
<stop offset="0.0001" stop-color="#00B8F0"/>
<stop offset="0.739583" stop-color="#B2EEFC"/>
</linearGradient>
<linearGradient id="paint3_linear" x1="43.8681" y1="3.22241" x2="43.8681" y2="24.8326" gradientUnits="userSpaceOnUse">
<stop stop-color="#F86CA2"/>
<stop offset="1" stop-color="#FA9EC2"/>
</linearGradient>
</defs>
</svg>
