<svg width="627" height="560" viewBox="0 0 627 560" fill="none" xmlns="http://www.w3.org/2000/svg">
<path d="M581.971 13.9982L581.983 14.0093L581.994 14.0196L663.352 86.2827L663.367 86.2959L663.383 86.3079C682.294 100.585 687.02 133.92 663.371 152.965L663.333 152.995L663.302 153.032L337.882 538.421C337.88 538.423 337.878 538.426 337.876 538.428C324.07 553.599 309.349 558.326 296.568 558.107C283.77 557.888 272.881 552.708 266.78 548.004C266.776 548.002 266.773 547.999 266.77 547.997L17.9285 336.04L17.9173 336.031L17.9055 336.022C8.46385 328.894 2.53729 316.988 1.35179 304.458C0.166791 291.933 3.72382 278.84 13.1732 269.328L13.1892 269.312L13.2036 269.294L84.9903 182.579L84.9985 182.569L85.0061 182.558C92.0699 173.078 103.873 168.302 116.335 167.704C128.79 167.107 141.826 170.691 151.292 177.831L285.281 293.442L285.666 293.773L285.991 293.384L515.709 18.7842L515.718 18.7734L515.726 18.7621C522.808 9.25736 534.634 3.29275 547.079 2.09966C559.518 0.907092 572.523 4.48656 581.971 13.9982Z" stroke="#3898FE" stroke-opacity="0.11"/>
<path d="M720.938 13.9982L720.949 14.0093L720.961 14.0196L802.319 86.2827L802.334 86.2959L802.35 86.3079C821.261 100.585 825.986 133.92 802.337 152.965L802.3 152.995L802.269 153.032L476.848 538.421C476.846 538.423 476.844 538.426 476.842 538.428C463.036 553.599 448.315 558.326 435.535 558.107C422.736 557.888 411.847 552.708 405.746 548.004C405.743 548.002 405.74 547.999 405.737 547.997L156.895 336.04L156.884 336.031L156.872 336.022C147.43 328.894 141.504 316.988 140.318 304.458C139.133 291.933 142.69 278.84 152.14 269.328L152.156 269.312L152.17 269.294L223.957 182.579L223.965 182.569L223.973 182.558C231.036 173.078 242.839 168.302 255.301 167.704C267.757 167.107 280.793 170.691 290.258 177.831L424.248 293.442L424.632 293.773L424.958 293.384L654.675 18.7842L654.684 18.7734L654.693 18.7621C661.774 9.25736 673.6 3.29275 686.045 2.09966C698.485 0.907092 711.489 4.48656 720.938 13.9982Z" stroke="#3898FE" stroke-opacity="0.11"/>
</svg>
