<?xml version="1.0" standalone="no"?>
<!DOCTYPE svg PUBLIC "-//W3C//DTD SVG 20010904//EN"
 "http://www.w3.org/TR/2001/REC-SVG-20010904/DTD/svg10.dtd">
<svg version="1.0" xmlns="http://www.w3.org/2000/svg"
 width="864.000000pt" height="864.000000pt" viewBox="0 0 864.000000 864.000000"
 preserveAspectRatio="xMidYMid meet">
<metadata>
Created by potrace 1.14, written by Peter Selinger 2001-2017
</metadata>
<g transform="translate(0.000000,864.000000) scale(0.100000,-0.100000)"
fill="#000000" stroke="none">
<path d="M5739 7099 c-7 -4 -16 -6 -19 -4 -9 6 -108 -32 -150 -58 -41 -24
-106 -88 -175 -172 -27 -33 -56 -67 -64 -76 -9 -9 -28 -31 -43 -50 -25 -32
-39 -49 -91 -109 -12 -14 -53 -63 -92 -110 -38 -47 -75 -89 -81 -95 -6 -5 -55
-64 -110 -130 -54 -66 -101 -122 -104 -125 -3 -3 -41 -48 -85 -100 -43 -52
-86 -102 -94 -111 -9 -9 -23 -25 -31 -36 -22 -27 -114 -137 -120 -143 -3 -3
-25 -30 -50 -60 -25 -30 -52 -62 -60 -71 -8 -9 -31 -35 -50 -59 -19 -23 -40
-47 -45 -54 -6 -6 -33 -38 -60 -71 -28 -33 -52 -62 -55 -65 -3 -3 -32 -36 -64
-75 -57 -69 -96 -115 -156 -185 -16 -19 -69 -83 -117 -142 -93 -112 -111 -127
-128 -106 -6 7 -35 33 -65 58 -76 63 -98 81 -136 115 -19 17 -40 35 -46 40 -7
6 -44 37 -83 70 -38 33 -83 71 -99 85 -16 14 -34 30 -40 35 -166 152 -418 183
-595 75 -47 -29 -83 -64 -132 -130 -15 -19 -37 -47 -50 -61 -67 -72 -166 -184
-177 -201 -19 -27 -32 -23 -89 30 -29 26 -61 54 -71 62 -18 14 -103 86 -158
135 -13 11 -44 38 -70 60 -26 22 -52 45 -58 50 -49 47 -136 92 -219 114 -73
20 -196 23 -277 6 -46 -9 -139 -57 -170 -87 -30 -29 -100 -108 -100 -113 0 -2
-10 -15 -22 -27 -13 -13 -39 -44 -59 -68 -32 -39 -109 -131 -174 -209 -11 -13
-26 -29 -33 -36 -6 -8 -12 -18 -12 -24 0 -6 -4 -11 -8 -11 -5 0 -33 -30 -63
-67 -30 -38 -58 -73 -64 -79 -5 -6 -28 -32 -50 -59 -22 -27 -55 -64 -72 -84
-18 -20 -33 -39 -33 -42 0 -3 -15 -22 -32 -41 -103 -111 -152 -193 -165 -274
-7 -48 -7 -149 1 -189 19 -96 81 -202 151 -260 25 -20 50 -41 57 -48 7 -7 40
-34 73 -62 33 -27 62 -52 65 -55 3 -3 46 -39 95 -80 110 -92 134 -112 149
-125 6 -6 33 -28 61 -50 27 -22 59 -49 70 -60 11 -11 45 -40 75 -65 30 -24 60
-48 65 -54 6 -6 35 -31 65 -56 30 -25 57 -47 60 -50 3 -3 46 -39 95 -80 50
-41 95 -79 101 -85 6 -5 29 -25 52 -43 23 -19 52 -44 65 -55 14 -12 44 -39 68
-59 136 -115 211 -178 259 -218 30 -25 70 -59 90 -76 19 -17 46 -39 59 -50 13
-10 34 -29 47 -41 13 -13 27 -23 33 -23 5 0 11 -4 13 -9 2 -4 35 -35 73 -67
39 -32 75 -63 81 -69 6 -5 33 -28 60 -50 46 -39 247 -209 271 -230 6 -5 30
-26 54 -45 24 -19 50 -42 59 -50 14 -13 68 -58 149 -125 14 -11 38 -33 55 -49
36 -33 105 -79 124 -82 8 -1 21 -6 30 -10 31 -13 47 -16 112 -18 79 -4 146 17
227 71 59 38 247 220 318 307 88 108 107 126 120 113 6 -7 34 -31 61 -53 27
-23 142 -120 255 -216 253 -214 301 -240 439 -233 124 5 230 79 385 269 22 27
51 61 65 76 14 16 45 51 70 80 25 29 54 62 65 74 11 11 45 50 75 86 30 35 64
74 75 86 11 11 45 50 75 85 30 35 62 70 70 79 8 9 58 65 110 125 52 61 109
126 127 145 17 19 41 46 53 60 11 14 31 36 43 50 12 14 49 56 82 94 33 38 69
79 80 91 11 11 45 50 75 85 30 35 64 73 75 86 11 12 43 48 70 80 28 31 59 67
70 80 11 12 45 50 75 85 30 35 62 70 70 79 8 9 58 65 110 125 52 61 97 112
100 115 3 3 39 43 79 90 108 124 194 222 211 240 8 9 30 34 49 55 30 35 120
138 176 201 11 12 43 48 70 80 28 32 57 65 65 73 8 9 38 43 65 76 28 32 59 68
70 79 11 12 45 50 75 85 30 35 66 76 79 90 12 14 39 45 59 69 20 24 54 63 77
86 22 24 55 62 74 84 18 23 47 57 65 76 17 18 52 58 78 87 25 30 55 63 65 75
10 12 45 52 78 90 33 38 75 84 93 102 17 19 32 36 32 38 0 6 51 63 143 158 42
44 77 84 77 88 0 3 6 13 13 20 53 58 76 202 49 308 -17 66 -80 175 -133 230
-30 31 -90 87 -134 125 -44 38 -87 76 -96 85 -8 8 -39 35 -69 60 -29 25 -66
57 -83 73 -16 15 -52 46 -80 70 -27 23 -59 51 -71 63 -12 11 -55 49 -96 85
-41 35 -80 69 -86 74 -83 75 -158 141 -172 151 -38 26 -93 54 -117 58 -13 3
-29 8 -35 11 -21 13 -150 13 -214 -1 -117 -24 -198 -80 -306 -210 -28 -34
-115 -137 -145 -173 -11 -13 -32 -37 -47 -55 -15 -17 -28 -34 -28 -38 0 -16
-16 -6 -65 38 -27 25 -89 80 -137 122 -49 42 -88 80 -88 84 0 4 -4 8 -10 8 -5
0 -20 10 -33 23 -79 74 -140 127 -147 127 -4 0 -13 7 -20 15 -15 17 -98 58
-145 70 -42 11 -180 14 -196 4z"/>
</g>
</svg>
